<svg xmlns="http://www.w3.org/2000/svg" width="1250" height="1230" viewBox="0 0 1250 1230"><rect width="100%" height="100%" fill="#f7fafc"/><text x="30" y="35" font-family="Arial,sans-serif" font-size="23" fill="#172d40">IonTrail One EVT-A / module wiring schematic</text><text x="30" y="62" font-family="Arial,sans-serif" font-size="15" fill="#172d40">DRAFT — equal net labels connect; module internals excluded; no PCB release</text><rect x="30" y="100" width="570" height="282" rx="6" fill="white" stroke="#8fa9bb"/><text x="46" y="125" font-family="Arial,sans-serif" font-size="16" fill="#172d40">U1  ESP32-C3 SuperMini module</text><text x="46" y="148" font-family="Arial,sans-serif" font-size="12" fill="#536779">Provisional board revision; verify pins before assembly</text><text x="46" y="175" font-family="Arial,sans-serif" font-size="14" fill="#172d40">USB</text><path d="M 240 170 h 54" stroke="#187b97" stroke-width="2"/><circle cx="240" cy="170" r="3" fill="#187b97"/><text x="304" y="175" font-family="Arial,sans-serif" font-size="13" fill="#172d40">USB_HOST</text><text x="46" y="201" font-family="Arial,sans-serif" font-size="14" fill="#172d40">5V</text><path d="M 240 196 h 54" stroke="#187b97" stroke-width="2"/><circle cx="240" cy="196" r="3" fill="#187b97"/><text x="304" y="201" font-family="Arial,sans-serif" font-size="13" fill="#172d40">USB_5V</text><text x="46" y="227" font-family="Arial,sans-serif" font-size="14" fill="#172d40">GND</text><path d="M 240 222 h 54" stroke="#187b97" stroke-width="2"/><circle cx="240" cy="222" r="3" fill="#187b97"/><text x="304" y="227" font-family="Arial,sans-serif" font-size="13" fill="#172d40">GND</text><text x="46" y="253" font-family="Arial,sans-serif" font-size="14" fill="#172d40">GPIO3</text><path d="M 240 248 h 54" stroke="#187b97" stroke-width="2"/><circle cx="240" cy="248" r="3" fill="#187b97"/><text x="304" y="253" font-family="Arial,sans-serif" font-size="13" fill="#172d40">COUNT_IN</text><text x="46" y="279" font-family="Arial,sans-serif" font-size="14" fill="#172d40">GPIO4</text><path d="M 240 274 h 54" stroke="#187b97" stroke-width="2"/><circle cx="240" cy="274" r="3" fill="#187b97"/><text x="304" y="279" font-family="Arial,sans-serif" font-size="13" fill="#172d40">SDA</text><text x="46" y="305" font-family="Arial,sans-serif" font-size="14" fill="#172d40">GPIO5</text><path d="M 240 300 h 54" stroke="#187b97" stroke-width="2"/><circle cx="240" cy="300" r="3" fill="#187b97"/><text x="304" y="305" font-family="Arial,sans-serif" font-size="13" fill="#172d40">SCL</text><text x="46" y="331" font-family="Arial,sans-serif" font-size="14" fill="#172d40">GPIO0</text><path d="M 240 326 h 54" stroke="#187b97" stroke-width="2"/><circle cx="240" cy="326" r="3" fill="#187b97"/><text x="304" y="331" font-family="Arial,sans-serif" font-size="13" fill="#172d40">RESET_BTN</text><text x="46" y="357" font-family="Arial,sans-serif" font-size="14" fill="#172d40">GPIO7</text><path d="M 240 352 h 54" stroke="#187b97" stroke-width="2"/><circle cx="240" cy="352" r="3" fill="#187b97"/><text x="304" y="357" font-family="Arial,sans-serif" font-size="13" fill="#172d40">LED_ANODE</text><rect x="640" y="100" width="570" height="126" rx="6" fill="white" stroke="#8fa9bb"/><text x="656" y="125" font-family="Arial,sans-serif" font-size="16" fill="#172d40">J1  USB data and 5 V cable</text><text x="656" y="148" font-family="Arial,sans-serif" font-size="12" fill="#536779">Prototype selection; bench verification required</text><text x="656" y="175" font-family="Arial,sans-serif" font-size="14" fill="#172d40">USB</text><path d="M 850 170 h 54" stroke="#187b97" stroke-width="2"/><circle cx="850" cy="170" r="3" fill="#187b97"/><text x="914" y="175" font-family="Arial,sans-serif" font-size="13" fill="#172d40">USB_HOST</text><text x="656" y="201" font-family="Arial,sans-serif" font-size="14" fill="#172d40">GND</text><path d="M 850 196 h 54" stroke="#187b97" stroke-width="2"/><circle cx="850" cy="196" r="3" fill="#187b97"/><text x="914" y="201" font-family="Arial,sans-serif" font-size="13" fill="#172d40">GND</text><rect x="640" y="246" width="570" height="204" rx="6" fill="white" stroke="#8fa9bb"/><text x="656" y="271" font-family="Arial,sans-serif" font-size="16" fill="#172d40">U2  AP2112K-3.3 LDO on breakout</text><text x="656" y="294" font-family="Arial,sans-serif" font-size="12" fill="#536779">Auxiliary sensors only; do not join to MCU 3V3 output</text><text x="656" y="321" font-family="Arial,sans-serif" font-size="14" fill="#172d40">1 VIN</text><path d="M 850 316 h 54" stroke="#187b97" stroke-width="2"/><circle cx="850" cy="316" r="3" fill="#187b97"/><text x="914" y="321" font-family="Arial,sans-serif" font-size="13" fill="#172d40">USB_5V</text><text x="656" y="347" font-family="Arial,sans-serif" font-size="14" fill="#172d40">2 GND</text><path d="M 850 342 h 54" stroke="#187b97" stroke-width="2"/><circle cx="850" cy="342" r="3" fill="#187b97"/><text x="914" y="347" font-family="Arial,sans-serif" font-size="13" fill="#172d40">GND</text><text x="656" y="373" font-family="Arial,sans-serif" font-size="14" fill="#172d40">3 EN</text><path d="M 850 368 h 54" stroke="#187b97" stroke-width="2"/><circle cx="850" cy="368" r="3" fill="#187b97"/><text x="914" y="373" font-family="Arial,sans-serif" font-size="13" fill="#172d40">USB_5V</text><text x="656" y="399" font-family="Arial,sans-serif" font-size="14" fill="#172d40">4 NC</text><path d="M 850 394 h 54" stroke="#187b97" stroke-width="2"/><circle cx="850" cy="394" r="3" fill="#187b97"/><text x="914" y="399" font-family="Arial,sans-serif" font-size="13" fill="#172d40">NC</text><text x="656" y="425" font-family="Arial,sans-serif" font-size="14" fill="#172d40">5 VOUT</text><path d="M 850 420 h 54" stroke="#187b97" stroke-width="2"/><circle cx="850" cy="420" r="3" fill="#187b97"/><text x="914" y="425" font-family="Arial,sans-serif" font-size="13" fill="#172d40">AUX_3V3</text><rect x="30" y="402" width="570" height="126" rx="6" fill="white" stroke="#8fa9bb"/><text x="46" y="427" font-family="Arial,sans-serif" font-size="16" fill="#172d40">C1  10 uF ceramic / &gt;=10 V</text><text x="46" y="450" font-family="Arial,sans-serif" font-size="12" fill="#536779">Prototype selection; bench verification required</text><text x="46" y="477" font-family="Arial,sans-serif" font-size="14" fill="#172d40">1</text><path d="M 240 472 h 54" stroke="#187b97" stroke-width="2"/><circle cx="240" cy="472" r="3" fill="#187b97"/><text x="304" y="477" font-family="Arial,sans-serif" font-size="13" fill="#172d40">USB_5V</text><text x="46" y="503" font-family="Arial,sans-serif" font-size="14" fill="#172d40">2</text><path d="M 240 498 h 54" stroke="#187b97" stroke-width="2"/><circle cx="240" cy="498" r="3" fill="#187b97"/><text x="304" y="503" font-family="Arial,sans-serif" font-size="13" fill="#172d40">GND</text><rect x="640" y="470" width="570" height="126" rx="6" fill="white" stroke="#8fa9bb"/><text x="656" y="495" font-family="Arial,sans-serif" font-size="16" fill="#172d40">C2  10 uF ceramic / &gt;=10 V</text><text x="656" y="518" font-family="Arial,sans-serif" font-size="12" fill="#536779">Prototype selection; bench verification required</text><text x="656" y="545" font-family="Arial,sans-serif" font-size="14" fill="#172d40">1</text><path d="M 850 540 h 54" stroke="#187b97" stroke-width="2"/><circle cx="850" cy="540" r="3" fill="#187b97"/><text x="914" y="545" font-family="Arial,sans-serif" font-size="13" fill="#172d40">AUX_3V3</text><text x="656" y="571" font-family="Arial,sans-serif" font-size="14" fill="#172d40">2</text><path d="M 850 566 h 54" stroke="#187b97" stroke-width="2"/><circle cx="850" cy="566" r="3" fill="#187b97"/><text x="914" y="571" font-family="Arial,sans-serif" font-size="13" fill="#172d40">GND</text><rect x="30" y="548" width="570" height="152" rx="6" fill="white" stroke="#8fa9bb"/><text x="46" y="573" font-family="Arial,sans-serif" font-size="16" fill="#172d40">U3  DFRobot SEN0463 guarded detector</text><text x="46" y="596" font-family="Arial,sans-serif" font-size="12" fill="#536779">107 x 42 mm board; larger guard envelope assumed</text><text x="46" y="623" font-family="Arial,sans-serif" font-size="14" fill="#172d40">-</text><path d="M 240 618 h 54" stroke="#187b97" stroke-width="2"/><circle cx="240" cy="618" r="3" fill="#187b97"/><text x="304" y="623" font-family="Arial,sans-serif" font-size="13" fill="#172d40">GND</text><text x="46" y="649" font-family="Arial,sans-serif" font-size="14" fill="#172d40">+</text><path d="M 240 644 h 54" stroke="#187b97" stroke-width="2"/><circle cx="240" cy="644" r="3" fill="#187b97"/><text x="304" y="649" font-family="Arial,sans-serif" font-size="13" fill="#172d40">AUX_3V3</text><text x="46" y="675" font-family="Arial,sans-serif" font-size="14" fill="#172d40">D</text><path d="M 240 670 h 54" stroke="#187b97" stroke-width="2"/><circle cx="240" cy="670" r="3" fill="#187b97"/><text x="304" y="675" font-family="Arial,sans-serif" font-size="13" fill="#172d40">PULSE_MODULE</text><rect x="640" y="616" width="570" height="126" rx="6" fill="white" stroke="#8fa9bb"/><text x="656" y="641" font-family="Arial,sans-serif" font-size="16" fill="#172d40">R1  1k pulse series resistor</text><text x="656" y="664" font-family="Arial,sans-serif" font-size="12" fill="#536779">Not a high-voltage isolation component</text><text x="656" y="691" font-family="Arial,sans-serif" font-size="14" fill="#172d40">1</text><path d="M 850 686 h 54" stroke="#187b97" stroke-width="2"/><circle cx="850" cy="686" r="3" fill="#187b97"/><text x="914" y="691" font-family="Arial,sans-serif" font-size="13" fill="#172d40">PULSE_MODULE</text><text x="656" y="717" font-family="Arial,sans-serif" font-size="14" fill="#172d40">2</text><path d="M 850 712 h 54" stroke="#187b97" stroke-width="2"/><circle cx="850" cy="712" r="3" fill="#187b97"/><text x="914" y="717" font-family="Arial,sans-serif" font-size="13" fill="#172d40">COUNT_IN</text><rect x="30" y="720" width="570" height="178" rx="6" fill="white" stroke="#8fa9bb"/><text x="46" y="745" font-family="Arial,sans-serif" font-size="16" fill="#172d40">U4  SHT40 Adafruit breakout</text><text x="46" y="768" font-family="Arial,sans-serif" font-size="12" fill="#536779">Address 0x44; vented end; envelope assumed</text><text x="46" y="795" font-family="Arial,sans-serif" font-size="14" fill="#172d40">VIN</text><path d="M 240 790 h 54" stroke="#187b97" stroke-width="2"/><circle cx="240" cy="790" r="3" fill="#187b97"/><text x="304" y="795" font-family="Arial,sans-serif" font-size="13" fill="#172d40">AUX_3V3</text><text x="46" y="821" font-family="Arial,sans-serif" font-size="14" fill="#172d40">GND</text><path d="M 240 816 h 54" stroke="#187b97" stroke-width="2"/><circle cx="240" cy="816" r="3" fill="#187b97"/><text x="304" y="821" font-family="Arial,sans-serif" font-size="13" fill="#172d40">GND</text><text x="46" y="847" font-family="Arial,sans-serif" font-size="14" fill="#172d40">SDA</text><path d="M 240 842 h 54" stroke="#187b97" stroke-width="2"/><circle cx="240" cy="842" r="3" fill="#187b97"/><text x="304" y="847" font-family="Arial,sans-serif" font-size="13" fill="#172d40">SDA</text><text x="46" y="873" font-family="Arial,sans-serif" font-size="14" fill="#172d40">SCL</text><path d="M 240 868 h 54" stroke="#187b97" stroke-width="2"/><circle cx="240" cy="868" r="3" fill="#187b97"/><text x="304" y="873" font-family="Arial,sans-serif" font-size="13" fill="#172d40">SCL</text><rect x="640" y="762" width="570" height="178" rx="6" fill="white" stroke="#8fa9bb"/><text x="656" y="787" font-family="Arial,sans-serif" font-size="16" fill="#172d40">U5  SSD1306 128x64 I2C OLED</text><text x="656" y="810" font-family="Arial,sans-serif" font-size="12" fill="#536779">Select 3.3 V compatible module at 0x3C; verify pin order</text><text x="656" y="837" font-family="Arial,sans-serif" font-size="14" fill="#172d40">VCC</text><path d="M 850 832 h 54" stroke="#187b97" stroke-width="2"/><circle cx="850" cy="832" r="3" fill="#187b97"/><text x="914" y="837" font-family="Arial,sans-serif" font-size="13" fill="#172d40">AUX_3V3</text><text x="656" y="863" font-family="Arial,sans-serif" font-size="14" fill="#172d40">GND</text><path d="M 850 858 h 54" stroke="#187b97" stroke-width="2"/><circle cx="850" cy="858" r="3" fill="#187b97"/><text x="914" y="863" font-family="Arial,sans-serif" font-size="13" fill="#172d40">GND</text><text x="656" y="889" font-family="Arial,sans-serif" font-size="14" fill="#172d40">SDA</text><path d="M 850 884 h 54" stroke="#187b97" stroke-width="2"/><circle cx="850" cy="884" r="3" fill="#187b97"/><text x="914" y="889" font-family="Arial,sans-serif" font-size="13" fill="#172d40">SDA</text><text x="656" y="915" font-family="Arial,sans-serif" font-size="14" fill="#172d40">SCL</text><path d="M 850 910 h 54" stroke="#187b97" stroke-width="2"/><circle cx="850" cy="910" r="3" fill="#187b97"/><text x="914" y="915" font-family="Arial,sans-serif" font-size="13" fill="#172d40">SCL</text><rect x="30" y="918" width="570" height="126" rx="6" fill="white" stroke="#8fa9bb"/><text x="46" y="943" font-family="Arial,sans-serif" font-size="16" fill="#172d40">S1  Momentary reset-count button</text><text x="46" y="966" font-family="Arial,sans-serif" font-size="12" fill="#536779">Firmware: hold two seconds; internal pull-up</text><text x="46" y="993" font-family="Arial,sans-serif" font-size="14" fill="#172d40">1</text><path d="M 240 988 h 54" stroke="#187b97" stroke-width="2"/><circle cx="240" cy="988" r="3" fill="#187b97"/><text x="304" y="993" font-family="Arial,sans-serif" font-size="13" fill="#172d40">RESET_BTN</text><text x="46" y="1019" font-family="Arial,sans-serif" font-size="14" fill="#172d40">2</text><path d="M 240 1014 h 54" stroke="#187b97" stroke-width="2"/><circle cx="240" cy="1014" r="3" fill="#187b97"/><text x="304" y="1019" font-family="Arial,sans-serif" font-size="13" fill="#172d40">GND</text><rect x="640" y="960" width="570" height="126" rx="6" fill="white" stroke="#8fa9bb"/><text x="656" y="985" font-family="Arial,sans-serif" font-size="16" fill="#172d40">R2  1k status LED resistor</text><text x="656" y="1008" font-family="Arial,sans-serif" font-size="12" fill="#536779">Prototype selection; bench verification required</text><text x="656" y="1035" font-family="Arial,sans-serif" font-size="14" fill="#172d40">1</text><path d="M 850 1030 h 54" stroke="#187b97" stroke-width="2"/><circle cx="850" cy="1030" r="3" fill="#187b97"/><text x="914" y="1035" font-family="Arial,sans-serif" font-size="13" fill="#172d40">LED_ANODE</text><text x="656" y="1061" font-family="Arial,sans-serif" font-size="14" fill="#172d40">2</text><path d="M 850 1056 h 54" stroke="#187b97" stroke-width="2"/><circle cx="850" cy="1056" r="3" fill="#187b97"/><text x="914" y="1061" font-family="Arial,sans-serif" font-size="13" fill="#172d40">LED_LIMITED</text><rect x="30" y="1064" width="570" height="126" rx="6" fill="white" stroke="#8fa9bb"/><text x="46" y="1089" font-family="Arial,sans-serif" font-size="16" fill="#172d40">D1  Green indicator LED</text><text x="46" y="1112" font-family="Arial,sans-serif" font-size="12" fill="#536779">Heartbeat only, not detector-health indication</text><text x="46" y="1139" font-family="Arial,sans-serif" font-size="14" fill="#172d40">A</text><path d="M 240 1134 h 54" stroke="#187b97" stroke-width="2"/><circle cx="240" cy="1134" r="3" fill="#187b97"/><text x="304" y="1139" font-family="Arial,sans-serif" font-size="13" fill="#172d40">LED_LIMITED</text><text x="46" y="1165" font-family="Arial,sans-serif" font-size="14" fill="#172d40">K</text><path d="M 240 1160 h 54" stroke="#187b97" stroke-width="2"/><circle cx="240" cy="1160" r="3" fill="#187b97"/><text x="304" y="1165" font-family="Arial,sans-serif" font-size="13" fill="#172d40">GND</text></svg>